<?xml version="1.0" encoding="UTF-8"?>
<svg width="300px" height="131px" viewBox="0 0 300 131" version="1.1" xmlns="http://www.w3.org/2000/svg" xmlns:xlink="http://www.w3.org/1999/xlink">
    <title>first-national-bank-fnb-vector-logo</title>
    <g id="SXI-Admin-Portal" stroke="none" stroke-width="1" fill="none" fill-rule="evenodd">
        <g id="Sign-In" transform="translate(-526.000000, -128.000000)">
            <g id="first-national-bank-fnb-vector-logo" transform="translate(526.000000, 128.000000)">
                <path d="M3.89351082,63.5440932 C3.89351082,28.5024958 32.2462562,0.149750416 67.2379368,0.149750416 C102.279534,0.149750416 130.63228,28.5024958 130.63228,63.5440932 C130.63228,65.6905158 130.582363,67.8868552 130.332779,70.0332779 C123.144759,98.1364393 97.6372712,118.951747 67.2379368,118.951747 C36.8885191,118.951747 11.4309484,98.1364393 4.24292845,70.0332779 C3.94342762,67.8868552 3.89351082,65.7404326 3.89351082,63.5440932" id="Path" fill="#F4A000" fill-rule="nonzero"></path>
                <path d="M61.9467554,79.8169717 L58.9517471,76.8219634 C52.9617304,74.9750416 46.6222962,73.9767055 40.0831947,73.8269551 L61.3477537,95.0415973 L61.9467554,79.8169717 M46.8718802,64.7420965 L33.3943428,51.2645591 C29.6505824,50.8153078 25.906822,50.5657238 22.0133111,50.5657238 C14.875208,50.5657238 7.93677205,51.3144759 1.34775374,52.9118136 C1.54742097,51.6638935 1.79700499,50.3660566 2.04658902,49.1680532 C12.9783694,43.5274542 25.2079867,40.0332779 38.1863561,39.1846922 L41.530782,42.6289517 L46.1231281,47.171381 C55.8569052,42.5291181 66.7387687,39.9334443 78.2196339,39.9334443 C77.5707155,39.1347754 76.9717138,38.2362729 76.3227953,37.3876872 C74.1763727,37.2878536 71.9800333,37.1381032 69.7836938,37.1381032 C62.296173,37.1381032 55.0083195,38.2362729 48.2196339,40.3327787 L44.0765391,36.1896839 C41.2312812,35.9400998 38.2861897,35.7404326 35.2911814,35.7404326 C24.608985,35.5407654 14.2262895,37.18802 4.59234609,40.4326123 C5.09151414,39.0848586 5.640599,37.8868552 6.13976705,36.5890183 C13.8269551,30.9983361 22.3627288,26.6056572 31.4975042,23.6106489 L29.6006656,21.6638935 C40.8319468,15.8735441 53.7104825,12.6788686 67.2379368,12.6788686 C75.3244592,12.6788686 83.0615641,13.7770383 90.4492512,15.9234609 C93.1447587,18.5690516 95.6905158,21.4642263 98.0366057,24.4592346 C98.7853577,23.8602329 99.6339434,23.3610649 100.532446,22.81198 C110.615641,25.8069884 120.049917,30.4991681 128.43594,36.5890183 C128.935108,37.8868552 129.484193,39.0848586 129.983361,40.4326123 C122.196339,37.8369384 114.009983,36.2396007 105.574043,35.7903494 C106.472546,37.437604 107.371048,39.0349418 108.1198,40.7321131 C116.755408,42.3793677 124.991681,45.2246256 132.529118,49.1680532 C132.778702,50.3660566 133.028286,51.6638935 133.227953,52.9118136 C126.539101,51.3144759 119.700499,50.5657238 112.562396,50.5657238 L112.163062,50.5657238 C112.712146,52.1630616 113.261231,53.7603993 113.760399,55.4076539 C120.798669,56.6056572 127.637271,58.6522463 133.976705,61.3976705 C134.026622,62.0965058 134.026622,62.7454243 134.026622,63.4442596 L134.026622,64.093178 C130.732113,63.6938436 127.33777,63.5440932 123.893511,63.5440932 C117.254576,63.5440932 110.865225,64.2429285 104.625624,65.5906822 C102.579035,64.2429285 100.482529,62.9450915 98.3361065,61.6971714 L85.7570715,74.3261231 L73.0282862,87.0549085 L74.2262895,118.352745 C71.9301165,118.602329 69.6339434,118.75208 67.2379368,118.75208 C64.9417637,118.75208 62.5956739,118.602329 60.3993344,118.352745 L60.9484193,105.124792 L61.1480865,100.083195 L34.8918469,73.8768719 L34.3926789,73.9267887 C29.6505824,74.1763727 24.9584027,74.875208 20.515807,75.9733777 C20.0166389,74.9750416 19.5673877,73.9267887 19.1680532,72.8785358 C22.4126456,71.1813644 25.8569052,69.6339434 29.4009983,68.4359401 L25.7570715,64.7920133 C24.608985,64.5923461 23.4608985,64.3926789 22.312812,64.2928453 C21.0648918,64.093178 19.7171381,63.9933444 18.4193012,63.843594 C15.8236273,63.6439268 13.2279534,63.5440932 10.5324459,63.5440932 C7.08818636,63.5440932 3.7437604,63.7437604 0.399334443,64.093178 L0.399334443,63.4442596 C0.399334443,62.7454243 0.399334443,62.0965058 0.449251248,61.3976705 C9.63394343,57.4542429 19.6173045,55.0582363 30.0998336,54.359401 L41.2312812,65.4908486 C43.1780366,65.1414309 45.0249584,64.8918469 46.8718802,64.7420965 M75.6239601,54.608985 L87.953411,66.8885191 L94.9417637,59.9001664 C88.7021631,56.8552413 81.9134775,54.7587354 74.7753744,53.8103161 L75.6239601,54.608985 Z M85.3577371,69.484193 L67.2878536,51.4143095 L66.3394343,50.515807 C59.1514143,52.1630616 52.3627288,55.1081531 46.2229617,58.9018303 L52.0133111,64.6921797 C54.7587354,64.4425957 57.5540765,64.5424293 60.1996672,64.7920133 C61.1980033,68.0865225 61.8968386,71.4808652 62.4459235,74.9750416 L71.031614,83.6605657 L85.3577371,69.484193 Z" id="Shape" fill="#231815"></path>
                <path d="M4.39267887,69.7836938 C11.530782,97.8868552 36.9384359,118.702163 67.2379368,118.702163 C97.5873544,118.702163 122.995008,97.8868552 130.133111,69.7836938 C131.381032,69.5840266 132.678869,69.484193 133.876872,69.3344426 C130.93178,103.527454 102.279534,130.382696 67.2379368,130.382696 C32.2462562,130.382696 3.59400998,103.527454 0.648918469,69.3344426 C1.8469218,69.484193 3.14475874,69.5840266 4.39267887,69.7836938" id="Path" fill="#009EA7" fill-rule="nonzero"></path>
                <path d="M285.024958,64.1930116 C285.024958,61.3477537 282.978369,59.5507488 279.53411,59.5507488 L271.846922,59.5507488 L271.846922,68.8352745 L279.53411,68.8352745 C283.028286,68.8352745 285.024958,67.0382696 285.024958,64.1930116 M288.968386,82.81198 C288.968386,79.6173045 286.472546,77.2712146 282.229617,77.2712146 L271.797005,77.2712146 L271.797005,88.452579 L282.229617,88.452579 C286.522463,88.452579 288.968386,86.2063228 288.968386,82.81198 M296.056572,62.7953411 C296.056572,66.3394343 294.509151,69.5840266 291.414309,71.7803661 L290.565724,72.3793677 L291.56406,72.7787022 C297.304493,74.8252912 300,79.2678869 300,84.2595674 C300,91.2978369 294.409318,97.2379368 282.778702,97.2379368 L261.114809,97.2379368 L261.114809,50.8153078 L280.083195,50.8153078 C291.014975,50.8153078 296.056572,56.3061564 296.056572,62.7953411 M177.703827,97.2379368 L166.522463,97.2379368 L166.522463,62.7953411 C166.522463,56.3061564 171.56406,50.8153078 182.49584,50.8153078 L204.509151,50.8153078 L204.459235,59.5507488 L182.995008,59.5507488 C180.099834,59.5507488 178.252912,60.7487521 177.65391,62.7953411 L177.65391,69.3843594 L202.163062,69.3843594 L202.163062,79.0682196 L177.703827,79.0682196 L177.703827,97.2379368 Z M251.381032,97.2379368 C248.485857,97.2379368 245.840266,96.0399334 243.893511,94.1930116 L229.36772,79.7171381 L222.129784,72.4292845 C220.232945,70.5823627 218.785358,68.5856905 218.785358,68.5856905 L218.28619,68.7354409 L218.28619,97.2379368 L207.953411,97.2379368 L207.953411,50.8153078 L211.397671,50.8153078 C214.292845,50.8153078 216.938436,52.0133111 218.885191,53.9101498 L233.361065,68.3860233 L240.648918,75.6738769 C242.49584,77.5207987 244.043261,79.5174709 244.043261,79.5174709 L244.442596,79.4176373 L244.542429,50.8652246 L254.875208,50.8652246 L254.875208,97.2878536 L251.381032,97.2878536 L251.381032,97.2379368 Z" id="Shape" fill="#009EA7" fill-rule="nonzero"></path>
            </g>
        </g>
    </g>
</svg>