<?xml version="1.0" encoding="UTF-8"?>
<svg width="153px" height="45px" viewBox="0 0 153 45" version="1.1" xmlns="http://www.w3.org/2000/svg" xmlns:xlink="http://www.w3.org/1999/xlink">
    <title>Group 7</title>
    <g id="SXI-Admin-Portal" stroke="none" stroke-width="1" fill="none" fill-rule="evenodd">
        <g id="Ticket-Page---View-Ticket-Information" transform="translate(-25.000000, -15.000000)">
            <g id="Group-7" transform="translate(25.000000, 15.000000)">
                <g id="first-national-bank-fnb-vector-logo">
                    <path d="M1,21.8781513 C1,9.78487395 10.8432454,0 22.9913352,0 C35.1567546,0 45,9.78487395 45,21.8781513 C45,22.6189076 44.9826703,23.3768908 44.8960221,24.1176471 C42.4005514,33.8163866 33.5450965,41 22.9913352,41 C12.4549035,41 3.61677826,33.8163866 1.1213076,24.1176471 C1.01732966,23.3768908 1,22.6361345 1,21.8781513" id="Path" fill="#F4A000" fill-rule="nonzero"></path>
                    <path d="M21.1871498,27.7858824 L20.1561449,26.7694118 C18.0941352,26.1425882 15.9118416,25.8037647 13.6608143,25.7529412 L20.9809488,32.9529412 L21.1871498,27.7858824 M15.9977587,22.6696471 L11.3582368,18.0955294 C10.0694808,17.9430588 8.78072469,17.8583529 7.44041838,17.8583529 C4.98319014,17.8583529 2.59469555,18.1124706 0.326484871,18.6545882 C0.395218528,18.2310588 0.4811356,17.7905882 0.567052671,17.384 C4.3302204,15.4696471 8.54015689,14.2837647 13.0078446,13.9957647 L14.1591334,15.1647059 L15.7400075,16.7063529 C19.0907733,15.1308235 22.8367576,14.2498824 26.7889428,14.2498824 C26.5655585,13.9788235 26.3593575,13.6738824 26.1359731,13.3858824 C25.3970863,13.352 24.6410161,13.3011765 23.8849458,13.3011765 C21.3074337,13.3011765 18.7986552,13.6738824 16.4617109,14.3854118 L15.0354875,12.9792941 C14.0560329,12.8945882 13.0422114,12.8268235 12.0112066,12.8268235 C8.33395592,12.7590588 4.75980575,13.3181176 1.4434068,14.4192941 C1.61524094,13.9618824 1.8042585,13.5552941 1.97609264,13.1148235 C4.62233844,11.2174118 7.56070228,9.72658824 10.7052671,8.71011765 L10.0522973,8.04941176 C13.9185656,6.08423529 18.3518864,5 23.0085917,5 C25.7923048,5 28.455734,5.37270588 30.9988793,6.10117647 C31.9267837,6.99905882 32.8031378,7.98164706 33.6107583,8.99811765 C33.8685095,8.79482353 34.1606276,8.62541176 34.469929,8.43905882 C37.9409787,9.45552941 41.188644,11.048 44.0754576,13.1148235 C44.2472917,13.5552941 44.4363093,13.9618824 44.6081434,14.4192941 C41.9275308,13.5383529 39.1094509,12.9962353 36.2054539,12.8437647 C36.5147553,13.4028235 36.8240568,13.9449412 37.081808,14.5209412 C40.0545387,15.08 42.889802,16.0456471 45.4844976,17.384 C45.5704146,17.7905882 45.6563317,18.2310588 45.7250654,18.6545882 C43.4224879,18.1124706 41.0683601,17.8583529 38.6111319,17.8583529 L38.4736645,17.8583529 C38.6626821,18.4004706 38.8516997,18.9425882 39.0235338,19.5016471 C41.4463952,19.9082353 43.800523,20.6028235 45.9828166,21.5345882 C46,21.7717647 46,21.992 46,22.2291765 L46,22.4494118 C44.8658947,22.3138824 43.6974225,22.2630588 42.5117669,22.2630588 C40.2263728,22.2630588 38.0268958,22.5002353 35.878969,22.9576471 C35.174449,22.5002353 34.4527456,22.0597647 33.7138588,21.6362353 L29.3836384,25.9223529 L25.0018678,30.2423529 L25.4142697,40.8644706 C24.6238326,40.9491765 23.8333956,41 23.0085917,41 C22.2181547,41 21.4105342,40.9491765 20.654464,40.8644706 L20.8434815,36.3750588 L20.9122152,34.664 L11.8737393,25.7698824 L11.7019051,25.7868235 C10.0694808,25.8715294 8.45423982,26.1087059 6.92491595,26.4814118 C6.75308181,26.1425882 6.59843108,25.7868235 6.46096377,25.4310588 C7.57788569,24.8550588 8.76354128,24.3298824 9.98356369,23.9232941 L8.72917445,22.6865882 C8.33395592,22.6188235 7.93873739,22.5510588 7.54351886,22.5171765 C7.11393351,22.4494118 6.64998132,22.4155294 6.20321255,22.3647059 C5.30967501,22.2969412 4.41613747,22.2630588 3.4882331,22.2630588 C2.30257751,22.2630588 1.15128876,22.3308235 0,22.4494118 L0,22.2291765 C0,21.992 0,21.7717647 0.0171834143,21.5345882 C3.17893164,20.1962353 6.61561449,19.3830588 10.2241315,19.1458824 L14.0560329,22.9237647 C14.726186,22.8051765 15.3619724,22.7204706 15.9977587,22.6696471 M25.8954053,19.2305882 L30.1397086,23.3981176 L32.5453866,21.0263529 C30.3974598,19.9929412 28.0605155,19.2814118 25.6032873,18.9595294 L25.8954053,19.2305882 Z M29.2461711,24.2790588 L23.0257751,18.1463529 L22.6992903,17.8414118 C20.2248786,18.4004706 17.8879343,19.4 15.7743743,20.6875294 L17.7676504,22.6527059 C18.7127381,22.568 19.6750093,22.6018824 20.5857303,22.6865882 C20.9293986,23.8047059 21.1699664,24.9567059 21.3589839,26.1425882 L24.3145312,29.0903529 L29.2461711,24.2790588 Z" id="Shape" fill="#231815"></path>
                    <path d="M1.29261896,24.154538 C3.75721244,33.8217498 12.5297864,40.9820114 22.9913825,40.9820114 C33.4702136,40.9820114 42.2427876,33.8217498 44.707381,24.154538 C45.138254,24.0858545 45.5863619,24.0515127 46,24 C44.9831398,35.7620605 35.090296,45 22.9913825,45 C10.909704,45 1.01686025,35.7620605 0,24 C0.413638067,24.0515127 0.861745972,24.0858545 1.29261896,24.154538" id="Path" fill="#009EA7" fill-rule="nonzero"></path>
                    <path d="M97.8391922,21.6058002 C97.8391922,20.6262084 97.1338818,20.0075188 95.946896,20.0075188 L93.2976814,20.0075188 L93.2976814,23.2040816 L95.946896,23.2040816 C97.1510845,23.2040816 97.8391922,22.5853921 97.8391922,21.6058002 M99.1982049,28.0161117 C99.1982049,26.9162191 98.3380703,26.1084855 96.8758414,26.1084855 L93.2804787,26.1084855 L93.2804787,29.9581096 L96.8758414,29.9581096 C98.355273,29.9581096 99.1982049,29.1847476 99.1982049,28.0161117 M101.640987,21.1245972 C101.640987,22.3447905 101.107704,23.461869 100.041137,24.2180451 L99.7486911,24.424275 L100.092745,24.5617615 C102.071055,25.2663802 103,26.7959184 103,28.5145005 C103,30.9377014 101.073298,32.9828142 97.0650711,32.9828142 L89.5991025,32.9828142 L89.5991025,17 L96.1361257,17 C99.9035153,17 101.640987,18.8904404 101.640987,21.1245972 M60.8534031,32.9828142 L57,32.9828142 L57,21.1245972 C57,18.8904404 58.737472,17 62.5048616,17 L70.0912491,17 L70.0740464,20.0075188 L62.6768886,20.0075188 C61.6791324,20.0075188 61.0426328,20.4199785 60.8362004,21.1245972 L60.8362004,23.3931257 L69.2827225,23.3931257 L69.2827225,26.7271751 L60.8534031,26.7271751 L60.8534031,32.9828142 Z M86.2445774,32.9828142 C85.2468212,32.9828142 84.3350785,32.5703545 83.6641735,31.9344791 L78.65819,26.9505908 L76.1637996,24.4414608 C75.5100972,23.8055854 75.0112191,23.1181525 75.0112191,23.1181525 L74.8391922,23.16971 L74.8391922,32.9828142 L71.2782349,32.9828142 L71.2782349,17 L72.4652206,17 C73.4629768,17 74.3747195,17.4124597 75.0456245,18.0655209 L80.0344054,23.0494092 L82.5459985,25.5585392 C83.1824981,26.1944146 83.7157816,26.8818475 83.7157816,26.8818475 L83.8534031,26.8474758 L83.8878085,17.0171858 L87.4487659,17.0171858 L87.4487659,33 L86.2445774,33 L86.2445774,32.9828142 Z" id="Shape" fill="#009EA7" fill-rule="nonzero"></path>
                </g>
                <text id="Admin" font-family="SFProRounded-Medium, SF Pro Rounded" font-size="14" font-weight="400" fill="#009EA7">
                    <tspan x="109" y="30">ADMIN</tspan>
                </text>
            </g>
        </g>
    </g>
</svg>