<?xml version="1.0" standalone="no"?>
<!DOCTYPE svg PUBLIC "-//W3C//DTD SVG 20010904//EN"
 "http://www.w3.org/TR/2001/REC-SVG-20010904/DTD/svg10.dtd">
<svg version="1.0" xmlns="http://www.w3.org/2000/svg"
 width="201.000000pt" height="201.000000pt" viewBox="0 0 201.000000 201.000000"
 preserveAspectRatio="xMidYMid meet">
<metadata>
Created by potrace 1.11, written by Peter Selinger 2001-2013
</metadata>
<g transform="translate(0.000000,201.000000) scale(0.100000,-0.100000)"
fill="#000000" stroke="none">
<path d="M903 1999 c-41 -12 -65 -48 -59 -84 3 -15 6 -28 8 -29 2 -1 13 -9 24
-19 12 -10 35 -21 51 -26 29 -8 29 -8 29 30 0 21 6 45 12 51 17 17 99 16 139
-2 18 -8 35 -11 39 -7 13 13 -59 67 -109 82 -57 17 -87 18 -134 4z"/>
<path d="M624 1919 c-65 -19 -80 -69 -60 -194 5 -27 9 -124 11 -215 2 -180 6
-197 66 -280 54 -75 102 -108 76 -52 -7 15 -25 54 -41 87 -36 76 -39 94 -36
180 4 135 2 271 -5 332 -6 56 -5 62 14 68 33 10 87 -23 150 -92 101 -109 103
-122 92 -455 -3 -80 13 -138 36 -138 9 0 12 13 9 41 -4 37 4 112 19 201 26
146 24 219 -7 285 -27 58 -165 198 -219 223 -48 21 -59 22 -105 9z"/>
<path d="M1610 1901 c-42 -13 -84 -38 -113 -66 -28 -29 -28 -45 3 -45 10 0 26
-8 36 -17 14 -15 16 -32 11 -127 -10 -188 -35 -280 -106 -391 -39 -62 -22 -75
26 -19 52 61 101 164 122 255 19 80 23 109 36 243 7 66 27 111 61 139 13 10
24 23 24 28 0 11 -64 11 -100 0z"/>
<path d="M1281 1893 c-13 -3 -67 -23 -120 -45 -53 -22 -120 -48 -148 -57 -59
-18 -65 -26 -29 -35 30 -7 74 -1 163 25 115 32 143 27 176 -38 22 -43 28 -74
31 -188 5 -133 -12 -205 -78 -336 -70 -140 -56 -157 31 -39 50 69 76 119 97
190 27 91 31 120 31 240 -1 209 -52 303 -154 283z"/>
<path d="M372 1593 c-48 -24 -118 -54 -155 -66 -38 -12 -69 -27 -69 -32 -1 -6
14 -13 33 -16 82 -15 132 -54 217 -168 30 -41 78 -98 106 -127 52 -52 156
-114 156 -93 0 6 -27 41 -61 77 -73 80 -150 193 -174 256 -25 66 -14 107 42
162 26 24 45 44 42 45 -35 7 -63 -1 -137 -38z"/>
<path d="M1667 1513 c4 -10 19 -41 35 -70 15 -28 31 -71 34 -95 9 -68 -19 -94
-178 -163 -125 -55 -205 -101 -195 -112 8 -7 372 104 417 127 49 25 69 54 65
91 -9 66 -77 176 -133 214 -43 30 -54 31 -45 8z"/>
<path d="M681 1017 c-7 -7 -4 -19 12 -41 40 -57 116 -106 203 -132 l54 -15 1
-187 c0 -103 1 -288 2 -412 l2 -225 78 -3 77 -3 1 198 c0 109 2 294 3 412 l2
214 65 21 c109 36 209 108 209 152 0 21 -24 18 -130 -17 -161 -51 -291 -48
-455 11 -99 36 -112 39 -124 27z"/>
<path d="M565 865 c-5 -2 -44 -13 -85 -25 -41 -12 -81 -23 -88 -26 -19 -6 55
-82 95 -99 59 -25 109 -24 165 2 56 26 105 38 182 48 46 5 76 15 47 15 -6 0
-35 15 -64 33 -29 18 -73 39 -99 45 -43 11 -130 15 -153 7z"/>
<path d="M1353 860 c-17 -4 -53 -20 -80 -36 -26 -16 -57 -32 -67 -37 -27 -11
-15 -18 41 -24 64 -6 120 -21 167 -45 90 -46 203 -14 260 75 18 26 18 27 -1
27 -11 0 -46 10 -79 21 -62 22 -185 32 -241 19z"/>
</g>
</svg>
