<?xml version="1.0" encoding="UTF-8"?>
<svg width="194px" height="75px" viewBox="0 0 194 75" version="1.1" xmlns="http://www.w3.org/2000/svg" xmlns:xlink="http://www.w3.org/1999/xlink">
    <title>first-national-bank-fnb-vector-logo</title>
    <g id="SXI-Admin-Portal" stroke="none" stroke-width="1" fill="none" fill-rule="evenodd">
        <g id="Quotes---View">
            <g id="first-national-bank-fnb-vector-logo">
                <path d="M26,36.8781513 C26,24.7848739 35.8432454,15 47.9913352,15 C60.1567546,15 70,24.7848739 70,36.8781513 C70,37.6189076 69.9826703,38.3768908 69.8960221,39.1176471 C67.4005514,48.8163866 58.5450965,56 47.9913352,56 C37.4549035,56 28.6167783,48.8163866 26.1213076,39.1176471 C26.0173297,38.3768908 26,37.6361345 26,36.8781513" id="Path" fill="#F4A000" fill-rule="nonzero"></path>
                <path d="M46.1871498,42.7858824 L45.1561449,41.7694118 C43.0941352,41.1425882 40.9118416,40.8037647 38.6608143,40.7529412 L45.9809488,47.9529412 L46.1871498,42.7858824 M40.9977587,37.6696471 L36.3582368,33.0955294 C35.0694808,32.9430588 33.7807247,32.8583529 32.4404184,32.8583529 C29.9831901,32.8583529 27.5946956,33.1124706 25.3264849,33.6545882 C25.3952185,33.2310588 25.4811356,32.7905882 25.5670527,32.384 C29.3302204,30.4696471 33.5401569,29.2837647 38.0078446,28.9957647 L39.1591334,30.1647059 L40.7400075,31.7063529 C44.0907733,30.1308235 47.8367576,29.2498824 51.7889428,29.2498824 C51.5655585,28.9788235 51.3593575,28.6738824 51.1359731,28.3858824 C50.3970863,28.352 49.6410161,28.3011765 48.8849458,28.3011765 C46.3074337,28.3011765 43.7986552,28.6738824 41.4617109,29.3854118 L40.0354875,27.9792941 C39.0560329,27.8945882 38.0422114,27.8268235 37.0112066,27.8268235 C33.3339559,27.7590588 29.7598058,28.3181176 26.4434068,29.4192941 C26.6152409,28.9618824 26.8042585,28.5552941 26.9760926,28.1148235 C29.6223384,26.2174118 32.5607023,24.7265882 35.7052671,23.7101176 L35.0522973,23.0494118 C38.9185656,21.0842353 43.3518864,20 48.0085917,20 C50.7923048,20 53.455734,20.3727059 55.9988793,21.1011765 C56.9267837,21.9990588 57.8031378,22.9816471 58.6107583,23.9981176 C58.8685095,23.7948235 59.1606276,23.6254118 59.469929,23.4390588 C62.9409787,24.4555294 66.188644,26.048 69.0754576,28.1148235 C69.2472917,28.5552941 69.4363093,28.9618824 69.6081434,29.4192941 C66.9275308,28.5383529 64.1094509,27.9962353 61.2054539,27.8437647 C61.5147553,28.4028235 61.8240568,28.9449412 62.081808,29.5209412 C65.0545387,30.08 67.889802,31.0456471 70.4844976,32.384 C70.5704146,32.7905882 70.6563317,33.2310588 70.7250654,33.6545882 C68.4224879,33.1124706 66.0683601,32.8583529 63.6111319,32.8583529 L63.4736645,32.8583529 C63.6626821,33.4004706 63.8516997,33.9425882 64.0235338,34.5016471 C66.4463952,34.9082353 68.800523,35.6028235 70.9828166,36.5345882 C71,36.7717647 71,36.992 71,37.2291765 L71,37.4494118 C69.8658947,37.3138824 68.6974225,37.2630588 67.5117669,37.2630588 C65.2263728,37.2630588 63.0268958,37.5002353 60.878969,37.9576471 C60.174449,37.5002353 59.4527456,37.0597647 58.7138588,36.6362353 L54.3836384,40.9223529 L50.0018678,45.2423529 L50.4142697,55.8644706 C49.6238326,55.9491765 48.8333956,56 48.0085917,56 C47.2181547,56 46.4105342,55.9491765 45.654464,55.8644706 L45.8434815,51.3750588 L45.9122152,49.664 L36.8737393,40.7698824 L36.7019051,40.7868235 C35.0694808,40.8715294 33.4542398,41.1087059 31.924916,41.4814118 C31.7530818,41.1425882 31.5984311,40.7868235 31.4609638,40.4310588 C32.5778857,39.8550588 33.7635413,39.3298824 34.9835637,38.9232941 L33.7291744,37.6865882 C33.3339559,37.6188235 32.9387374,37.5510588 32.5435189,37.5171765 C32.1139335,37.4494118 31.6499813,37.4155294 31.2032126,37.3647059 C30.309675,37.2969412 29.4161375,37.2630588 28.4882331,37.2630588 C27.3025775,37.2630588 26.1512888,37.3308235 25,37.4494118 L25,37.2291765 C25,36.992 25,36.7717647 25.0171834,36.5345882 C28.1789316,35.1962353 31.6156145,34.3830588 35.2241315,34.1458824 L39.0560329,37.9237647 C39.726186,37.8051765 40.3619724,37.7204706 40.9977587,37.6696471 M50.8954053,34.2305882 L55.1397086,38.3981176 L57.5453866,36.0263529 C55.3974598,34.9929412 53.0605155,34.2814118 50.6032873,33.9595294 L50.8954053,34.2305882 Z M54.2461711,39.2790588 L48.0257751,33.1463529 L47.6992903,32.8414118 C45.2248786,33.4004706 42.8879343,34.4 40.7743743,35.6875294 L42.7676504,37.6527059 C43.7127381,37.568 44.6750093,37.6018824 45.5857303,37.6865882 C45.9293986,38.8047059 46.1699664,39.9567059 46.3589839,41.1425882 L49.3145312,44.0903529 L54.2461711,39.2790588 Z" id="Shape" fill="#231815"></path>
                <path d="M26.292619,39.154538 C28.7572124,48.8217498 37.5297864,55.9820114 47.9913825,55.9820114 C58.4702136,55.9820114 67.2427876,48.8217498 69.707381,39.154538 C70.138254,39.0858545 70.5863619,39.0515127 71,39 C69.9831398,50.7620605 60.090296,60 47.9913825,60 C35.909704,60 26.0168602,50.7620605 25,39 C25.4136381,39.0515127 25.861746,39.0858545 26.292619,39.154538" id="Path" fill="#009EA7" fill-rule="nonzero"></path>
                <path d="M122.839192,36.6058002 C122.839192,35.6262084 122.133882,35.0075188 120.946896,35.0075188 L118.297681,35.0075188 L118.297681,38.2040816 L120.946896,38.2040816 C122.151085,38.2040816 122.839192,37.5853921 122.839192,36.6058002 M124.198205,43.0161117 C124.198205,41.9162191 123.33807,41.1084855 121.875841,41.1084855 L118.280479,41.1084855 L118.280479,44.9581096 L121.875841,44.9581096 C123.355273,44.9581096 124.198205,44.1847476 124.198205,43.0161117 M126.640987,36.1245972 C126.640987,37.3447905 126.107704,38.461869 125.041137,39.2180451 L124.748691,39.424275 L125.092745,39.5617615 C127.071055,40.2663802 128,41.7959184 128,43.5145005 C128,45.9377014 126.073298,47.9828142 122.065071,47.9828142 L114.599102,47.9828142 L114.599102,32 L121.136126,32 C124.903515,32 126.640987,33.8904404 126.640987,36.1245972 M85.8534031,47.9828142 L82,47.9828142 L82,36.1245972 C82,33.8904404 83.737472,32 87.5048616,32 L95.0912491,32 L95.0740464,35.0075188 L87.6768886,35.0075188 C86.6791324,35.0075188 86.0426328,35.4199785 85.8362004,36.1245972 L85.8362004,38.3931257 L94.2827225,38.3931257 L94.2827225,41.7271751 L85.8534031,41.7271751 L85.8534031,47.9828142 Z M111.244577,47.9828142 C110.246821,47.9828142 109.335079,47.5703545 108.664174,46.9344791 L103.65819,41.9505908 L101.1638,39.4414608 C100.510097,38.8055854 100.011219,38.1181525 100.011219,38.1181525 L99.8391922,38.16971 L99.8391922,47.9828142 L96.2782349,47.9828142 L96.2782349,32 L97.4652206,32 C98.4629768,32 99.3747195,32.4124597 100.045625,33.0655209 L105.034405,38.0494092 L107.545999,40.5585392 C108.182498,41.1944146 108.715782,41.8818475 108.715782,41.8818475 L108.853403,41.8474758 L108.887809,32.0171858 L112.448766,32.0171858 L112.448766,48 L111.244577,48 L111.244577,47.9828142 Z" id="Shape" fill="#009EA7" fill-rule="nonzero"></path>
                <rect id="Rectangle" x="0" y="0" width="194" height="75"></rect>
                <text id="Admin" font-family="SFProRounded-Medium, SF Pro Rounded" font-size="14" font-weight="400" fill="#009EA7">
                    <tspan x="134" y="45">ADMIN</tspan>
                </text>
            </g>
        </g>
    </g>
</svg>